<?xml version="1.0" encoding="UTF-8" standalone="no"?>
<!-- Created with Inkscape (http://www.inkscape.org/) -->
<svg
   xmlns:dc="http://purl.org/dc/elements/1.1/"
   xmlns:cc="http://creativecommons.org/ns#"
   xmlns:rdf="http://www.w3.org/1999/02/22-rdf-syntax-ns#"
   xmlns:svg="http://www.w3.org/2000/svg"
   xmlns="http://www.w3.org/2000/svg"
   xmlns:sodipodi="http://sodipodi.sourceforge.net/DTD/sodipodi-0.dtd"
   xmlns:inkscape="http://www.inkscape.org/namespaces/inkscape"
   width="744.09448819"
   height="1052.3622047"
   id="svg2"
   sodipodi:version="0.32"
   inkscape:version="0.46"
   sodipodi:docname="Reifenberg.svg"
   inkscape:output_extension="org.inkscape.output.svg.inkscape">
  <defs
     id="defs4">
    <marker
       inkscape:stockid="Arrow1Mstart"
       orient="auto"
       refY="0.0"
       refX="0.0"
       id="Arrow1Mstart"
       style="overflow:visible">
      <path
         id="path3182"
         d="M 0.0,0.0 L 5.0,-5.0 L -12.5,0.0 L 5.0,5.0 L 0.0,0.0 z "
         style="fill-rule:evenodd;stroke:#000000;stroke-width:1.0pt;marker-start:none"
         transform="scale(0.4) translate(10,0)" />
    </marker>
    <marker
       inkscape:stockid="Arrow1Mend"
       orient="auto"
       refY="0.0"
       refX="0.0"
       id="Arrow1Mend"
       style="overflow:visible;">
      <path
         id="path3185"
         d="M 0.0,0.0 L 5.0,-5.0 L -12.5,0.0 L 5.0,5.0 L 0.0,0.0 z "
         style="fill-rule:evenodd;stroke:#000000;stroke-width:1.0pt;marker-start:none;"
         transform="scale(0.4) rotate(180) translate(10,0)" />
    </marker>
    <inkscape:perspective
       sodipodi:type="inkscape:persp3d"
       inkscape:vp_x="0 : 526.18109 : 1"
       inkscape:vp_y="0 : 1000 : 0"
       inkscape:vp_z="744.09448 : 526.18109 : 1"
       inkscape:persp3d-origin="372.04724 : 350.78739 : 1"
       id="perspective10" />
  </defs>
  <sodipodi:namedview
     id="base"
     pagecolor="#ffffff"
     bordercolor="#666666"
     borderopacity="1.0"
     gridtolerance="10000"
     guidetolerance="10"
     objecttolerance="10"
     inkscape:pageopacity="0.0"
     inkscape:pageshadow="2"
     inkscape:zoom="0.98994949"
     inkscape:cx="355.98796"
     inkscape:cy="729.64998"
     inkscape:document-units="px"
     inkscape:current-layer="layer1"
     showgrid="false"
     inkscape:window-width="1280"
     inkscape:window-height="752"
     inkscape:window-x="0"
     inkscape:window-y="0" />
  <metadata
     id="metadata7">
    <rdf:RDF>
      <cc:Work
         rdf:about="">
        <dc:format>image/svg+xml</dc:format>
        <dc:type
           rdf:resource="http://purl.org/dc/dcmitype/StillImage" />
      </cc:Work>
    </rdf:RDF>
  </metadata>
  <g
     inkscape:label="Layer 1"
     inkscape:groupmode="layer"
     id="layer1">
    <path
       style="fill:none;fill-rule:evenodd;stroke:#000000;stroke-width:1px;stroke-linecap:butt;stroke-linejoin:miter;stroke-opacity:1"
       d="M 138.57143,218.07647 C 144.14222,223.64726 158.76427,220.83719 167.14286,216.6479 C 179.9606,210.23903 176.11653,220.93361 187.14286,220.93361 C 197.19244,220.93361 200.44729,219.28139 208.57143,215.21933 C 215.32054,211.84477 223.23381,218.97909 227.14286,220.93361 C 232.22484,223.4746 235.46692,213.8526 241.42857,212.36218 C 250.99015,209.97179 253.79956,220.45493 261.42857,222.36218 C 268.67721,224.17434 271.22878,215.16938 282.85714,218.07647 C 292.20308,220.41295 297.05777,221.69044 304.28571,218.07647 C 313.97524,213.2317 316.3823,215.21933 328.57143,215.21933 C 340.58618,215.21933 351.09833,212.36218 362.85714,212.36218 C 379.18999,212.36218 399.51154,205.68938 412.85714,212.36218 C 418.65352,215.26037 421.05149,208.07647 431.42857,208.07647 C 439.54224,208.07647 444.66488,210.93361 454.28571,210.93361 C 462.14492,210.93361 465.32155,210.93361 478.57143,210.93361 C 484.40031,210.93361 484.89356,210.93361 494.28571,210.93361 C 497.14286,210.93361 500,210.93361 502.85714,210.93361 C 524.90054,210.93361 527.5701,198.94432 542.85714,209.50504 C 560.85184,221.93627 579.04762,199.50504 580,199.50504"
       id="path2393"
       sodipodi:nodetypes="csssssssssssssssssc" />
    <path
       style="fill:none;fill-rule:evenodd;stroke:#000000;stroke-width:1px;stroke-linecap:butt;stroke-linejoin:miter;stroke-opacity:1"
       d="M 138.3909,199.79343 L 579.82756,181.61069"
       id="path2397" />
    <path
       style="fill:none;fill-rule:evenodd;stroke:#000000;stroke-width:1px;stroke-linecap:butt;stroke-linejoin:miter;stroke-opacity:1"
       d="M 138.89598,243.22999 L 580.33264,225.04725"
       id="path2399" />
    <path
       style="fill:none;fill-rule:evenodd;stroke:#000000;stroke-width:1px;stroke-linecap:butt;stroke-linejoin:miter;stroke-opacity:1;marker-end:none;marker-start:url(#Arrow1Mstart)"
       d="M 155.56349,216.96603 L 119.198,153.32642 L 120.20815,131.10306"
       id="path2401" />
    <text
       xml:space="preserve"
       style="font-size:10px;font-style:normal;font-weight:normal;fill:#000000;fill-opacity:1;stroke:none;stroke-width:1px;stroke-linecap:butt;stroke-linejoin:miter;stroke-opacity:1;font-family:Bitstream Vera Sans"
       x="124.24876"
       y="129.08276"
       id="text4989"><tspan
         sodipodi:role="line"
         id="tspan4991"
         x="124.24876"
         y="129.08276">omega</tspan></text>
  </g>
</svg>
